<svg viewBox="0 0 200 180" fill="none" xmlns="http://www.w3.org/2000/svg">
    <!-- Left Building - Shaded Green -->
    <rect x="68" y="47" width="14" height="8" fill="#2C6B13" rx="0.5" />
    <rect x="71" y="42" width="8" height="5" fill="#2C6B13" rx="0.5" />
    <rect x="65" y="55" width="20" height="65" fill="#2C6B13" rx="0.5" />
    <g fill="#FCB116">
      <rect x="73.5" y="60" width="3" height="1.5" rx="0.3" />
      <rect x="73.5" y="66" width="3" height="1.5" rx="0.3" />
      <rect x="73.5" y="72" width="3" height="1.5" rx="0.3" />
      <rect x="73.5" y="78" width="3" height="1.5" rx="0.3" />
      <rect x="73.5" y="84" width="3" height="1.5" rx="0.3" />
      <rect x="73.5" y="90" width="3" height="1.5" rx="0.3" />
    </g>

    <!-- Right Building - Shaded Green -->
    <rect x="126" y="47" width="14" height="8" fill="#2C6B13" rx="0.5" />
    <rect x="129" y="42" width="8" height="5" fill="#2C6B13" rx="0.5" />
    <rect x="123" y="55" width="20" height="65" fill="#2C6B13" rx="0.5" />
    <g fill="#FCB116">
      <rect x="131.5" y="60" width="3" height="1.5" rx="0.3" />
      <rect x="131.5" y="66" width="3" height="1.5" rx="0.3" />
      <rect x="131.5" y="72" width="3" height="1.5" rx="0.3" />
      <rect x="131.5" y="78" width="3" height="1.5" rx="0.3" />
      <rect x="131.5" y="84" width="3" height="1.5" rx="0.3" />
      <rect x="131.5" y="90" width="3" height="1.5" rx="0.3" />
    </g>

    <!-- Center Building - Bright Vibrant Green -->
    <rect x="94" y="25" width="20" height="10" fill="#4CB021" rx="0.5" />
    <rect x="99" y="18" width="10" height="7" fill="#4CB021" rx="0.5" />
    <rect x="90" y="35" width="28" height="85" fill="#4CB021" rx="0.5" />
    <g fill="#FCB116">
      <rect x="95" y="42" width="3" height="1.5" rx="0.3" />
      <rect x="95" y="48" width="3" height="1.5" rx="0.3" />
      <rect x="95" y="54" width="3" height="1.5" rx="0.3" />
      <rect x="95" y="60" width="3" height="1.5" rx="0.3" />
      <rect x="95" y="66" width="3" height="1.5" rx="0.3" />
      <rect x="95" y="72" width="3" height="1.5" rx="0.3" />
      <rect x="95" y="78" width="3" height="1.5" rx="0.3" />
      <rect x="95" y="84" width="3" height="1.5" rx="0.3" />
      <rect x="95" y="90" width="3" height="1.5" rx="0.3" />
      
      <rect x="110" y="42" width="3" height="1.5" rx="0.3" />
      <rect x="110" y="48" width="3" height="1.5" rx="0.3" />
      <rect x="110" y="54" width="3" height="1.5" rx="0.3" />
      <rect x="110" y="60" width="3" height="1.5" rx="0.3" />
      <rect x="110" y="66" width="3" height="1.5" rx="0.3" />
      <rect x="110" y="72" width="3" height="1.5" rx="0.3" />
      <rect x="110" y="78" width="3" height="1.5" rx="0.3" />
      <rect x="110" y="84" width="3" height="1.5" rx="0.3" />
      <rect x="110" y="90" width="3" height="1.5" rx="0.3" />
    </g>

    <!-- Background joining fill for roofs -->
    <polygon points="72,72 142,72 116,112 98,112" fill="#2C6B13" opacity="0.15" />

    <!-- Left House Body -->
    <path d="M 38 112 L 72 82 L 106 112 V 135 H 38 Z" fill="#ffffff" stroke="#2C6B13" stroke-width="1.5" />
    <polygon points="72,72 28,112 116,112" fill="#4CB021" />

    <!-- Right House Body -->
    <path d="M 108 112 L 142 82 L 176 112 V 135 H 108 Z" fill="#ffffff" stroke="#2C6B13" stroke-width="1.5" />
    <polygon points="142,72 98,112 186,112" fill="#2C6B13" />

    <!-- Windows inside the houses -->
    <g fill="#4CB021">
      <!-- Left house left window -->
      <rect x="50" y="120" width="3" height="3" />
      <rect x="55" y="120" width="3" height="3" />
      <rect x="50" y="125" width="3" height="3" />
      <rect x="55" y="125" width="3" height="3" />

      <!-- Left house right window -->
      <rect x="86" y="120" width="3" height="3" />
      <rect x="91" y="120" width="3" height="3" />
      <rect x="86" y="125" width="3" height="3" />
      <rect x="91" y="125" width="3" height="3" />

      <!-- Right house left window -->
      <rect x="120" y="120" width="3" height="3" />
      <rect x="125" y="120" width="3" height="3" />
      <rect x="120" y="125" width="3" height="3" />
      <rect x="125" y="125" width="3" height="3" />

      <!-- Right house right window -->
      <rect x="156" y="120" width="3" height="3" />
      <rect x="161" y="120" width="3" height="3" />
      <rect x="156" y="125" width="3" height="3" />
      <rect x="161" y="125" width="3" height="3" />
    </g>

    <!-- Swoosh Layers -->
    <path d="M15 136 Q100 152 185 136 Q100 145 15 136 Z" fill="#4CB021" />
    <path d="M15 136 Q100 158 185 136 Q100 152 15 136 Z" fill="#FCB116" />

    <!-- Stars / Glints -->
    <!-- Left floating gold stars -->
    <path d="M 25 97 Q 25 105 33 105 Q 25 105 25 113 Q 25 105 17 105 Q 25 105 25 97 Z" fill="#FCB116" />
    <path d="M 37 91 Q 37 95 41 95 Q 37 95 37 99 Q 37 95 33 95 Q 37 95 37 91 Z" fill="#FCB116" />
    
    <!-- Right floating gold stars -->
    <path d="M 175 97 Q 175 105 183 105 Q 175 105 175 113 Q 175 105 167 105 Q 175 105 175 97 Z" fill="#FCB116" />
    <path d="M 163 91 Q 163 95 167 95 Q 163 95 163 99 Q 163 95 159 95 Q 163 95 163 91 Z" fill="#FCB116" />

    <!-- Roof Shines -->
    <path d="M 72 92 Q 72 100 80 100 Q 72 100 72 108 Q 72 100 64 100 Q 72 100 72 92 Z" fill="#ffffff" />
    <path d="M 58 90 Q 58 95 63 95 Q 58 95 58 100 Q 58 95 53 95 Q 58 95 58 90 Z" fill="#FCB116" />
    <path d="M 142 91 Q 142 96 147 96 Q 142 96 142 101 Q 142 96 137 96 Q 142 96 142 91 Z" fill="#FCB116" />
</svg>
