<svg viewBox="0 0 200 180" fill="none" xmlns="http://www.w3.org/2000/svg">
    <!-- Buildings - Dark Green and Light Green -->
    <rect x="70" y="45" width="22" height="75" fill="#36453B" rx="1" />
    <g fill="#FBBC05" opacity="0.6">
      <rect x="73" y="52" width="2" height="2" /> <rect x="77" y="52" width="2" height="2" /> <rect x="81" y="52" width="2" height="2" /> <rect x="85" y="52" width="2" height="2" />
      <rect x="73" y="58" width="2" height="2" /> <rect x="77" y="58" width="2" height="2" /> <rect x="81" y="58" width="2" height="2" /> <rect x="85" y="58" width="2" height="2" />
      <rect x="73" y="64" width="2" height="2" /> <rect x="77" y="64" width="2" height="2" /> <rect x="81" y="64" width="2" height="2" /> <rect x="85" y="64" width="2" height="2" />
      <rect x="73" y="70" width="2" height="2" /> <rect x="77" y="70" width="2" height="2" /> <rect x="81" y="70" width="2" height="2" /> <rect x="85" y="70" width="2" height="2" />
    </g>

    <rect x="95" y="20" width="28" height="100" fill="#607564" rx="1" />
    <g fill="#FBBC05">
      <rect x="100" y="30" width="3" height="4" /> <rect x="106" y="30" width="3" height="4" /> <rect x="112" y="30" width="3" height="4" /> <rect x="118" y="30" width="3" height="4" />
      <rect x="100" y="38" width="3" height="4" /> <rect x="106" y="38" width="3" height="4" /> <rect x="112" y="38" width="3" height="4" /> <rect x="118" y="38" width="3" height="4" />
      <rect x="100" y="46" width="3" height="4" /> <rect x="106" y="46" width="3" height="4" /> <rect x="112" y="46" width="3" height="4" /> <rect x="118" y="46" width="3" height="4" />
      <rect x="100" y="54" width="3" height="4" /> <rect x="106" y="54" width="3" height="4" /> <rect x="112" y="54" width="3" height="4" /> <rect x="118" y="54" width="3" height="4" />
      <rect x="100" y="62" width="3" height="4" /> <rect x="106" y="62" width="3" height="4" /> <rect x="112" y="62" width="3" height="4" /> <rect x="118" y="62" width="3" height="4" />
    </g>

    <rect x="127" y="50" width="20" height="70" fill="#36453B" rx="1" />
    <g fill="#FBBC05" opacity="0.6">
      <rect x="130" y="58" width="3" height="3" /> <rect x="136" y="58" width="3" height="3" /> <rect x="142" y="58" width="3" height="3" />
      <rect x="130" y="66" width="3" height="3" /> <rect x="136" y="66" width="3" height="3" /> <rect x="142" y="66" width="3" height="3" />
      <rect x="130" y="74" width="3" height="3" /> <rect x="136" y="74" width="3" height="3" /> <rect x="142" y="74" width="3" height="3" />
    </g>
    
    <!-- Houses -->
    <!-- House 1 -->
    <path d="M35 115 L80 75 L125 115 V135 H35 Z" fill="#ffffff" stroke="#607564" stroke-width="1.5" />
    <path d="M35 115 L80 75 L125 115 Z" fill="#607564" />
    <g fill="#607564" opacity="0.7">
      <rect x="56" y="115" width="5" height="5" /> <rect x="63" y="115" width="5" height="5" />
      <rect x="56" y="122" width="5" height="5" /> <rect x="63" y="122" width="5" height="5" />
    </g>
    
    <!-- House 2 -->
    <path d="M100 115 L145 75 L190 115 V135 H100 Z" fill="#ffffff" stroke="#607564" stroke-width="1.5" />
    <path d="M100 115 L145 75 L190 115 Z" fill="#607564" />
    <g fill="#607564" opacity="0.7">
      <rect x="121" y="115" width="5" height="5" /> <rect x="128" y="115" width="5" height="5" />
      <rect x="121" y="122" width="5" height="5" /> <rect x="128" y="122" width="5" height="5" />
    </g>
    
    <!-- Swoosh Layers -->
    <path d="M25 140 Q 107 168 190 140" stroke="#36453B" stroke-width="10" fill="none" stroke-linecap="round" />
    <path d="M25 140 Q 107 162 190 140" stroke="#FBBC05" stroke-width="5" fill="none" stroke-linecap="round" />
    <path d="M25 140 Q 107 152 190 140" stroke="#607564" stroke-width="2" fill="none" stroke-linecap="round" />
    
    <!-- Shining Stars / Glints -->
    <path d="M48 95 L51 102 L58 105 L51 108 L48 115 L45 108 L38 105 L45 102 Z" fill="#FBBC05" />
    <path d="M110 80 L115 90 L125 95 L115 100 L110 110 L105 100 L95 95 L105 90 Z" fill="#ffffff" />
    <path d="M165 105 L168 112 L175 115 L168 118 L165 125 L162 118 L155 115 L162 112 Z" fill="#FBBC05" />
    <path d="M85 85 L87 89 L91 90 L87 91 L85 95 L83 91 L79 90 L83 89 Z" fill="#FBBC05" />
    <path d="M140 85 L142 89 L146 90 L142 91 L140 95 L138 91 L134 90 L138 89 Z" fill="#FBBC05" />
    <path d="M175 90 L177 92 L180 93 L177 94 L175 97 L173 94 L170 93 L173 92 Z" fill="#FBBC05" />
    <path d="M25 100 L27 102 L30 103 L27 104 L25 107 L23 104 L20 103 L23 102 Z" fill="#FBBC05" />
</svg>
